<svg data-v-423bf9ae="" xmlns="http://www.w3.org/2000/svg" viewBox="0 0 350 90" class="iconLeft"><!----><!----><!----><g data-v-423bf9ae="" id="5902af02-c528-4913-8783-84d3751f08c8" fill="black" transform="matrix(5.830903811703725,0,0,5.830903811703725,108.40232678646753,4.854228980957743)"><path d="M4.12 6.76L6.69 11.61Q6.75 11.68 6.71 11.74Q6.66 11.80 6.58 11.80L6.58 11.80L5.84 11.80Q5.70 11.80 5.57 11.61L5.57 11.61L3.56 7.74L1.43 11.61Q1.34 11.72 1.28 11.76Q1.22 11.80 1.16 11.80L1.16 11.80L0.42 11.80Q0.34 11.80 0.29 11.74Q0.25 11.68 0.31 11.61L0.31 11.61L2.98 6.76L0.69 2.45Q0.63 2.38 0.67 2.32Q0.71 2.25 0.80 2.25L0.80 2.25L1.51 2.25Q1.61 2.25 1.67 2.30Q1.72 2.34 1.79 2.45L1.79 2.45L3.56 5.78L5.32 2.45Q5.46 2.25 5.60 2.25L5.60 2.25L6.31 2.25Q6.40 2.25 6.43 2.32Q6.47 2.38 6.43 2.45L6.43 2.45L4.12 6.76ZM12.18 8.57L12.18 8.13L11.91 8.13Q11.13 8.11 10.60 8.19Q10.07 8.27 9.69 8.46L9.69 8.46Q9.23 8.65 8.97 9.07Q8.72 9.48 8.72 9.91L8.72 9.91Q8.72 10.16 8.83 10.45Q8.95 10.74 9.18 10.89L9.18 10.89Q9.59 11.23 10.09 11.23L10.09 11.23Q10.58 11.23 10.91 11.04Q11.23 10.85 11.54 10.45Q11.84 10.05 12.01 9.55Q12.18 9.04 12.18 8.57L12.18 8.57ZM8.58 5.95L8.58 5.95Q8.51 5.99 8.45 5.97Q8.39 5.95 8.39 5.88L8.39 5.88L8.39 5.33Q8.39 5.15 8.58 5.07L8.58 5.07Q9.06 4.79 9.55 4.68Q10.05 4.56 10.63 4.56L10.63 4.56Q11.84 4.54 12.49 5.26Q13.13 5.99 13.13 7.07L13.13 7.07L13.13 10.33Q13.13 10.72 13.15 11.03Q13.16 11.34 13.19 11.62L13.19 11.62Q13.19 11.80 12.99 11.80L12.99 11.80L12.49 11.80Q12.29 11.80 12.29 11.62L12.29 11.62L12.29 10.63Q12.00 11.28 11.40 11.66Q10.79 12.03 9.98 12.03L9.98 12.03Q8.78 12.03 8.12 11.24L8.12 11.24Q7.90 10.99 7.78 10.64Q7.67 10.29 7.67 9.95L7.67 9.95Q7.67 9.23 8.07 8.62Q8.47 8.01 9.30 7.70L9.30 7.70Q10.09 7.34 12.00 7.34L12.00 7.34L12.18 7.34L12.18 7.01Q12.18 6.30 11.78 5.83Q11.38 5.36 10.63 5.36L10.63 5.36Q10.02 5.36 9.55 5.50Q9.09 5.63 8.58 5.95ZM20.38 4.98L18.06 11.62Q17.99 11.80 17.78 11.80L17.78 11.80L17.09 11.80Q16.88 11.80 16.83 11.62L16.83 11.62L14.62 4.98Q14.59 4.91 14.63 4.85Q14.67 4.79 14.76 4.79L14.76 4.79L15.37 4.79Q15.54 4.79 15.62 4.98L15.62 4.98L17.46 10.84L19.38 4.98Q19.40 4.90 19.47 4.84Q19.54 4.79 19.63 4.79L19.63 4.79L20.24 4.79Q20.33 4.79 20.37 4.85Q20.41 4.91 20.38 4.98L20.38 4.98ZM25.14 10.93L26.81 10.93Q27.01 10.93 27.01 11.13L27.01 11.13L27.01 11.61Q27.01 11.80 26.81 11.80L26.81 11.80L22.34 11.80Q22.15 11.80 22.15 11.61L22.15 11.61L22.15 11.13Q22.15 10.93 22.34 10.93L22.34 10.93L24.14 10.93L24.14 5.66L22.50 5.66Q22.30 5.66 22.30 5.46L22.30 5.46L22.30 4.98Q22.30 4.79 22.50 4.79L22.50 4.79L24.95 4.79Q25.14 4.79 25.14 4.98L25.14 4.98L25.14 10.93ZM23.70 2.52L23.70 2.52Q23.70 2.20 23.93 1.97Q24.16 1.74 24.49 1.74L24.49 1.74Q24.81 1.74 25.04 1.97Q25.27 2.20 25.27 2.52L25.27 2.52Q25.27 2.84 25.04 3.07Q24.81 3.30 24.49 3.30L24.49 3.30Q24.16 3.30 23.93 3.07Q23.70 2.84 23.70 2.52ZM30.87 10.93L32.26 10.93Q32.45 10.93 32.45 11.13L32.45 11.13L32.45 11.61Q32.45 11.80 32.26 11.80L32.26 11.80L29.11 11.80Q28.91 11.80 28.91 11.61L28.91 11.61L28.91 11.13Q28.91 10.93 29.11 10.93L29.11 10.93L29.93 10.93L29.93 5.66L28.85 5.66Q28.66 5.66 28.66 5.46L28.66 5.46L28.66 4.98Q28.66 4.79 28.85 4.79L28.85 4.79L30.55 4.79Q30.74 4.79 30.74 4.98L30.74 4.98L30.74 6.36Q31.60 4.59 33.21 4.59L33.21 4.59Q34.03 4.59 34.69 4.91L34.69 4.91Q34.83 4.97 34.85 5.05Q34.86 5.14 34.82 5.24L34.82 5.24L34.65 5.74Q34.61 5.84 34.55 5.83Q34.48 5.82 34.38 5.77L34.38 5.77Q33.77 5.47 33.07 5.47L33.07 5.47Q31.92 5.53 31.25 6.72L31.25 6.72Q30.87 7.45 30.87 8.62L30.87 8.62L30.87 10.93ZM40.45 8.29L40.45 8.29Q40.45 7.74 40.32 7.21Q40.19 6.68 39.93 6.24L39.93 6.24Q39.40 5.40 38.49 5.40L38.49 5.40Q37.53 5.40 37.04 6.24L37.04 6.24Q36.78 6.68 36.66 7.21Q36.54 7.74 36.54 8.29L36.54 8.29Q36.54 8.89 36.65 9.42Q36.76 9.95 37.04 10.33L37.04 10.33Q37.66 11.19 38.49 11.19L38.49 11.19Q39.45 11.19 39.93 10.33L39.93 10.33Q40.21 9.95 40.33 9.42Q40.45 8.89 40.45 8.29ZM41.41 8.29L41.41 8.29Q41.41 9.06 41.24 9.74Q41.06 10.42 40.70 10.88L40.70 10.88Q40.28 11.42 39.73 11.73Q39.19 12.03 38.49 12.03L38.49 12.03Q37.79 12.03 37.24 11.73Q36.69 11.42 36.27 10.88L36.27 10.88Q35.94 10.37 35.76 9.72Q35.59 9.06 35.59 8.29L35.59 8.29Q35.59 6.71 36.27 5.70L36.27 5.70Q37.07 4.56 38.49 4.56L38.49 4.56Q39.20 4.56 39.74 4.84Q40.28 5.11 40.70 5.70L40.70 5.70Q41.41 6.72 41.41 8.29Z"></path></g><!----><g data-v-423bf9ae="" id="1fc48f87-9358-4be5-a793-10a861d01a46" transform="matrix(1.9565217391304348,0,0,1.9565217391304348,-17.608695652173914,-17.608695652173914)" stroke="none" fill="black"><path d="M54 33a1 1 0 100-2h-7v-4h7a1 1 0 100-2h-7v-7a1 1 0 00-1-1h-7v-7a1 1 0 10-2 0v7h-4v-7a1 1 0 00-2 0v7h-4v-7a1 1 0 00-2 0v7h-7a1 1 0 00-1 1v7h-7a1 1 0 000 2h7v4h-7a1 1 0 000 2h7v4h-7a1 1 0 100 2h7v7a1 1 0 001 1h7v7a1 1 0 102 0v-7h4v7a1 1 0 102 0v-7h4v7a1 1 0 102 0v-7h7a1 1 0 001-1v-7h7a1 1 0 100-2h-7v-4h7zm-9 12H19V19h26v26z"></path></g><!----></svg>